<?xml version="1.0" encoding="utf-8"?>
<!-- Generator: Adobe Illustrator 24.1.1, SVG Export Plug-In . SVG Version: 6.00 Build 0)  -->
<svg version="1.1" id="Layer_1" xmlns="http://www.w3.org/2000/svg" xmlns:xlink="http://www.w3.org/1999/xlink" x="0px" y="0px"
	 viewBox="0 0 512 512" style="enable-background:new 0 0 512 512;" xml:space="preserve">
<style type="text/css">
	.st0{fill:#CA4738;}
	.st1{fill:#FFFFFF;}
</style>
<g id="XMLID_1_">
	<path id="XMLID_3_" class="st0" d="M25.2,0h461.6c14,0,25.2,11.2,25.2,25.2v461.6c0,14-11.2,25.2-25.2,25.2H25.2
		C11.2,512,0,500.8,0,486.8V25.2C0,11.2,11.2,0,25.2,0z"/>
	<path id="XMLID_4_" class="st1" d="M357.2,235.9c-19.6-6.5-31.7-10.3-31.7-26.1c0-13.1,9.3-22.4,22.4-22.4c10.3,0,17.7,4.7,24.2,14
		c0.9,0.9,1.9,0.9,2.8,0.9l19.6-10.3l0.9-0.9v-1.9c-10.3-19.6-26.1-28.9-46.6-28.9c-31.7,0-52.2,19.6-52.2,51.3s19.6,44.8,56.9,56.9
		c21.4,7.5,30.8,11.2,30.8,27c0,17.7-14.9,30.8-36.4,29.8s-28.9-13.1-37.3-32.6c-14-33.6-29.8-72.7-30.8-72.7
		c-15.9-38.2-48.5-60.6-87.7-60.6c-52.2,0-95.1,43.8-95.1,98.9c0,54.1,42.9,98.9,95.1,98.9c28.9,0,55-13.1,73.7-36.4
		c0.9-0.9,0.9-1.9,0-2.8l-12.1-28.9c0-0.9-0.9-0.9-1.9-0.9c-0.9,0-1.9,0-1.9,0.9c-11.2,22.4-33.6,36.4-57.8,36.4
		c-36.4,0-65.3-30.8-65.3-68.1s39.2-68.1,74.6-68.1c26.1,0,40.1,15.9,49.4,40.1l29.8,69.9l3.7,7.5c13.1,32.6,32.6,46.6,63.4,46.6
		c36.4,0,64.3-25.2,64.3-58.8s-17.7-45.7-48.5-56.9C362.8,237.8,360,236.9,357.2,235.9z"/>
</g>
</svg>
